# xmcd CD database file
#
# Track frame offsets:
#	150
#	24039
#	39688
#	56117
#	71010
#	88585
#	102931
#	118092
#	137426
#	151159
#	166283
#	180140
#	198004
#
# Disc length: 2751 seconds
#
# Revision: 0
# Processed by: cddbd v1.5.2PL0 Copyright (c) Steve Scherf et al.
# Submitted via: CDex 1.51
#
DISCID=9b0abd0d
DTITLE=The Piano Guys - YouTube Hits Vol. 1
DYEAR=2011
DGENRE=New Age
TTITLE0=Michael Meets Mozart
TTITLE1=Moonlight
TTITLE2=Without You
TTITLE3=The Cello Song
TTITLE4=Rolling In The Deep
TTITLE5=Cello Wars (Radio Edit)
TTITLE6=O Fortuna (Carmina Burana)
TTITLE7=Bring Him Home (Les Miserables)
TTITLE8=Charlie Brown Medley
TTITLE9=Rock Meets Rachmaninoff
TTITLE10=All Of Me
TTITLE11=More Than Words
TTITLE12=Twinkle Lullaby
EXTD=YEAR: 2011
EXTT0=
EXTT1=
EXTT2=
EXTT3=
EXTT4=
EXTT5=
EXTT6=
EXTT7=
EXTT8=
EXTT9=
EXTT10=
EXTT11=
EXTT12=
PLAYORDER=
